<svg xmlns="http://www.w3.org/2000/svg" width="45" height="45" viewBox="0 0 45 45"><defs><style>.a{fill:#fff;}</style></defs><g transform="translate(-315 -550)"><path d="M22.5,0A22.5,22.5,0,1,1,0,22.5,22.5,22.5,0,0,1,22.5,0Z" transform="translate(315 550)"/><path class="a" d="M-2993.175,929.718h-10.06V919.659a2.155,2.155,0,0,0-2.155-2.155,2.155,2.155,0,0,0-2.154,2.155v10.059h-10.06a2.155,2.155,0,0,0-2.154,2.155,2.155,2.155,0,0,0,2.154,2.154h10.06v10.06a2.154,2.154,0,0,0,2.154,2.154,2.154,2.154,0,0,0,2.155-2.154v-10.06h10.06a2.155,2.155,0,0,0,2.154-2.154A2.155,2.155,0,0,0-2993.175,929.718Z" transform="translate(3342.758 -359.504)"/></g></svg>