<svg xmlns="http://www.w3.org/2000/svg" width="32.41" height="50.557" viewBox="0 0 32.41 50.557"><defs><style>.a{fill:none;stroke:#f2f2f2;stroke-width:1.5px;opacity:0.97;}</style></defs><g transform="translate(1.033 0.967)"><path class="a" d="M-3036.306,1100.231l-3.637-2.215-.066-.039c-1.154-.723-2.058-1.292-2.81-1.852-1.159-.857-1.867-1.661-1.867-2.829,0-2.048,1.579-3.824,4.432-3.968.12-.009.206-.052.33-.052a7.113,7.113,0,0,1,3.01.722,12.331,12.331,0,0,1,3.714,2.78l4.948-4.632a15.717,15.717,0,0,0-6.24-4.566l1.876-4.958-3.146-1.187-1.99,5.274a13.036,13.036,0,0,0-1.828-.225c-7.356,0-13.165,5.188-13.165,11.61,0,4.537,2.21,7.222,5.595,9.347l1.267.781,2.269,1.4c.24.143.421.268.646.4,2.254,1.4,3.723,2.421,3.723,4.225,0,2.69-2.206,4.331-5.393,4.331a8.689,8.689,0,0,1-1.484-.21,9.606,9.606,0,0,1-3.173-1.115,12.053,12.053,0,0,1-3.675-3.422l-5.634,4.417a16.925,16.925,0,0,0,6.806,5.638l-1.885,4.987,3.144,1.187,1.938-5.135a16.823,16.823,0,0,0,3.355.344c8.589,0,14.157-5.355,14.157-12.151C-3031.088,1104.8-3032.7,1102.39-3036.306,1100.231Z" transform="translate(3058.603 -1077.437)"/></g></svg>