<svg xmlns="http://www.w3.org/2000/svg" width="47" height="17.725" viewBox="0 0 47 17.725"><defs><style>.a{fill:#fff;}.b{fill:none;stroke:#fff;stroke-linecap:round;stroke-miterlimit:10;stroke-width:1.25px;}.c{fill:#f3f3f3;font-size:12px;font-family:YuGothicUI-Regular, Yu Gothic UI;}</style></defs><g transform="translate(-270 -83.148)"><g transform="translate(270 84)"><path class="a" d="M-2821.24,1071.945l-9.557-5.893-1.633,1.419a.71.71,0,0,1-1.116-.238,1.149,1.149,0,0,1-.146-.571v-4.79a.91.91,0,0,1,.8-.988.7.7,0,0,1,.462.181l1.633,1.419,9.557-5.893a.737.737,0,0,1,1.073.442,1.188,1.188,0,0,1,.085.44v13.589a.911.911,0,0,1-.8.988A.682.682,0,0,1-2821.24,1071.945Z" transform="translate(2833.691 -1056.257)"/><line class="b" x2="4.899" transform="translate(15.885 8.011)"/><line class="b" x2="4.454" y2="2.521" transform="translate(15.885 13.5)"/><line class="b" y1="2.522" x2="4.454" transform="translate(15.885)"/></g><text class="c" transform="translate(293 97)"><tspan x="0" y="0">情報</tspan></text></g></svg>