<svg xmlns="http://www.w3.org/2000/svg" width="46" height="17.407" viewBox="0 0 46 17.407"><defs><style>.a{fill:#fff;}.b{fill:#f3f3f3;font-size:12px;font-family:YuGothicUI-Regular, Yu Gothic UI;}</style></defs><g transform="translate(-202 -83)"><g transform="translate(202 83)"><path class="a" d="M10.872,17.407A10.818,10.818,0,0,1,5.2,15.84L0,16.856l1.813-4.621A7.76,7.76,0,0,1,.963,8.7C.963,3.9,5.408,0,10.872,0S20.78,3.9,20.78,8.7,16.335,17.407,10.872,17.407Zm-.136-3.85a1.381,1.381,0,0,0-.962.377,1.124,1.124,0,0,0-.4.884,1.143,1.143,0,0,0,.4.885,1.431,1.431,0,0,0,1.914,0,1.143,1.143,0,0,0,.4-.885,1.124,1.124,0,0,0-.4-.884A1.372,1.372,0,0,0,10.735,13.557ZM10.412,4a3.205,3.205,0,0,1,.823.1,2.164,2.164,0,0,1,.686.316,1.477,1.477,0,0,1,.643,1.266,1.685,1.685,0,0,1-.234.866,4.036,4.036,0,0,1-.58.753c-.223.23-.476.477-.753.734a9.819,9.819,0,0,0-.753.781,4.292,4.292,0,0,0-.58.871,2.294,2.294,0,0,0-.233,1.04,4.167,4.167,0,0,0,.067.743,3.567,3.567,0,0,0,.152.612h2.01a4.634,4.634,0,0,1-.21-.555,2.427,2.427,0,0,1-.1-.734,1.624,1.624,0,0,1,.248-.876,4.147,4.147,0,0,1,.624-.762c.248-.242.52-.489.809-.735a5.872,5.872,0,0,0,.81-.842,4.745,4.745,0,0,0,.624-1.04,3.2,3.2,0,0,0,.248-1.289,2.9,2.9,0,0,0-.3-1.336,2.789,2.789,0,0,0-.81-.96,3.691,3.691,0,0,0-1.2-.584,5.271,5.271,0,0,0-1.457-.2,6.411,6.411,0,0,0-3.239.9V5.255A3.881,3.881,0,0,1,10.412,4Z" transform="translate(0 0)"/></g><text class="b" transform="translate(224 97)"><tspan x="0" y="0">問題</tspan></text></g></svg>