<svg xmlns="http://www.w3.org/2000/svg" width="46" height="17.408" viewBox="0 0 46 17.408"><defs><style>.a,.b{fill:#2b2d34;}.b{font-size:12px;font-family:YuGothicUI-Regular, Yu Gothic UI;}</style></defs><g transform="translate(-90 -84)"><g transform="translate(90 84)"><path class="a" d="M10.871,17.408A10.817,10.817,0,0,1,5.2,15.84L0,16.856l1.813-4.62A7.761,7.761,0,0,1,.963,8.7C.963,3.9,5.408,0,10.871,0S20.78,3.9,20.78,8.7a8.151,8.151,0,0,1-2.9,6.155A10.575,10.575,0,0,1,10.871,17.408Zm4.142-9.574A1.088,1.088,0,1,0,16.1,8.922,1.089,1.089,0,0,0,15.014,7.834Zm-4.351,0A1.088,1.088,0,1,0,11.75,8.922,1.09,1.09,0,0,0,10.663,7.834Zm-4.352,0A1.088,1.088,0,1,0,7.4,8.922,1.089,1.089,0,0,0,6.311,7.834Z" transform="translate(0 0)"/></g><text class="b" transform="translate(112 97)"><tspan x="0" y="0">閒聊</tspan></text></g></svg>