<svg xmlns="http://www.w3.org/2000/svg" width="42" height="18.571" viewBox="0 0 42 18.571"><defs><style>.a,.b{fill:#2b2d34;}.b{font-size:12px;font-family:YuGothicUI-Regular, Yu Gothic UI;}</style></defs><g transform="translate(-147 -83)"><g transform="translate(147 83)"><path class="a" d="M16,18.285H0V0H11.827L16,4.1V18.284ZM2.426,13.545a.338.338,0,0,0,0,.677H12.879a.338.338,0,1,0,0-.677Zm0-2.709a.338.338,0,1,0,0,.677H12.879a.338.338,0,1,0,0-.677Zm0-2.709a.338.338,0,1,0,0,.677H12.879a.338.338,0,1,0,0-.677Zm0-2.709a.338.338,0,1,0,0,.677H12.879a.338.338,0,1,0,0-.677Zm9.4-5.153V4.1h3.9Z" transform="translate(0 0)"/></g><text class="b" transform="translate(165 98)"><tspan x="0" y="0">心得</tspan></text><text class="b" transform="translate(165 98)"><tspan x="0" y="0">心得</tspan></text></g></svg>