<svg xmlns="http://www.w3.org/2000/svg" width="30" height="30" viewBox="0 0 30 30"><defs><style>.a{fill:#f3f3f3;}.b{fill:#2b2d34;}</style></defs><g transform="translate(-1199 4640)"><g transform="translate(91 24)"><circle class="a" cx="15" cy="15" r="15" transform="translate(1108 -4664)"/></g><path class="b" d="M11.326,8.341A19.443,19.443,0,0,1,4.892,7.53a7.668,7.668,0,0,1-4.05-2.7A7.723,7.723,0,0,1,0,2.73V0H6.132V2.73A2.945,2.945,0,0,0,7.684,4.392a9.624,9.624,0,0,0,3.642.668,9.625,9.625,0,0,0,3.642-.668A2.945,2.945,0,0,0,16.52,2.73V0h6.132V2.73a7.723,7.723,0,0,1-.843,2.1,7.668,7.668,0,0,1-4.05,2.7,18.832,18.832,0,0,1-5.674.827C11.7,8.357,11.433,8.346,11.326,8.341Z" transform="translate(1205.301 -4617.576) rotate(-56)"/></g></svg>