<svg xmlns="http://www.w3.org/2000/svg" width="14.848" height="23.787" viewBox="0 0 14.848 23.787"><defs><style>.a{fill:#ff3434;opacity:0.97;}</style></defs><path class="a" d="M-3047.695,1088.588l-1.78-1.084-.032-.019c-.564-.354-1.007-.632-1.375-.906a1.739,1.739,0,0,1-.913-1.384,2.028,2.028,0,0,1,2.168-1.941c.059,0,.1-.026.162-.026a3.479,3.479,0,0,1,1.473.353,6.035,6.035,0,0,1,1.817,1.36l2.42-2.266a7.684,7.684,0,0,0-3.052-2.234l.917-2.425-1.539-.581-.973,2.58a6.379,6.379,0,0,0-.894-.11c-3.6,0-6.441,2.538-6.441,5.68a5.049,5.049,0,0,0,2.737,4.573l.62.382,1.11.684c.118.07.206.131.316.2,1.1.684,1.821,1.185,1.821,2.067,0,1.316-1.079,2.119-2.638,2.119a4.256,4.256,0,0,1-.726-.1,4.7,4.7,0,0,1-1.552-.546,5.9,5.9,0,0,1-1.8-1.674l-2.756,2.161a8.28,8.28,0,0,0,3.33,2.758l-.922,2.439,1.538.581.948-2.512a8.232,8.232,0,0,0,1.641.168c4.2,0,6.926-2.62,6.926-5.944A4.5,4.5,0,0,0-3047.695,1088.588Z" transform="translate(3058.603 -1077.437)"/></svg>